<svg width="583" height="583" fill="none" xmlns="http://www.w3.org/2000/svg"><circle cx="406.682" cy="127.536" r="29.536" fill="#000"/><path d="M365.787 165.591v-60.207H92.582c197.094 15.336 237.989 40.327 129.503 110.759h93.719c0-29.99 33.322-46.197 49.983-50.552ZM0 237.727h315.804c-6.248 15.903 5.037 43.167 11.36 50.551-43.735 38.624-93.719 119.279-131.206 196.526C278.317 263.286 278.885 271.806 0 237.727Z" fill="#000"/><path d="M399.851 308.726C268.991 271.6 356.129 138.895 502.09 188.311v14.768c-35.973-12.496-102.239-17.608-120.415 34.079-22.371 63.616 144.291 39.342 144.291 122.687 0 26.155-44.872 94.287-174.963 60.775v-17.04c85.22 30.672 213.017-48.279 48.848-94.854Z" fill="#000"/></svg>